<?xml version="1.0" encoding="UTF-8"?>
<!--
Copyright (C) 2009/2010/2011 Ulrich Apel.
This work is distributed under the conditions of the Creative Commons 
Attribution-Share Alike 3.0 Licence. This means you are free:
* to Share - to copy, distribute and transmit the work
* to Remix - to adapt the work

Under the following conditions:
* Attribution. You must attribute the work by stating your use of KanjiVG in
  your own copyright header and linking to KanjiVG's website
  (http://kanjivg.tagaini.net)
* Share Alike. If you alter, transform, or build upon this work, you may
  distribute the resulting work only under the same or similar license to this
  one.

See http://creativecommons.org/licenses/by-sa/3.0/ for more details.
-->
<!DOCTYPE svg PUBLIC "-//W3C//DTD SVG 1.0//EN" "http://www.w3.org/TR/2001/REC-SVG-20010904/DTD/svg10.dtd" [
<!ATTLIST g
xmlns:kvg CDATA #FIXED "http://kanjivg.tagaini.net"
kvg:element CDATA #IMPLIED
kvg:variant CDATA #IMPLIED
kvg:partial CDATA #IMPLIED
kvg:original CDATA #IMPLIED
kvg:part CDATA #IMPLIED
kvg:number CDATA #IMPLIED
kvg:tradForm CDATA #IMPLIED
kvg:radicalForm CDATA #IMPLIED
kvg:position CDATA #IMPLIED
kvg:radical CDATA #IMPLIED
kvg:phon CDATA #IMPLIED >
<!ATTLIST path
xmlns:kvg CDATA #FIXED "http://kanjivg.tagaini.net"
kvg:type CDATA #IMPLIED >
]>
<svg xmlns="http://www.w3.org/2000/svg" width="109" height="109" viewBox="0 0 109 109">
<g style="fill:none;stroke:#000000;stroke-width:3;stroke-linecap:round;stroke-linejoin:round;">
	<path d="M53.63,19.14c2.62,0.36,4.82,0.33,7.14,0.14c9.25-0.78,21.23-2.78,30.22-2.74c2.45,0.01,3.92,0.24,5.14,0.49"/>
	<path d="M72.75,20.5c0.05,0.71-0.03,1.4-0.26,2.08c-0.73,2.41-2.84,6.26-4.67,8.76"/>
	<path d="M58.52,32.73c0.88,0.88,1.45,2.02,1.45,3.36c0,1.06,0.05,23.69-0.04,33.66c-0.02,2.71-0.04,4.48-0.04,4.63"/>
	<path d="M60.75,34.24c6.9-0.73,24.04-2.64,26.06-2.8c2.09-0.17,3.57,1.86,3.57,3.12c0,3.19-0.07,21.33-0.06,36.18c0,1.53,0.09,2.44,0.09,3.45"/>
	<path d="M60.98,47.15c6.02-0.9,22.34-2.3,28.25-2.67"/>
	<path d="M61.21,59.31c10.67-1.06,20.19-1.73,27.74-2.2"/>
	<path d="M61.17,71.95c6.36-1,19.95-1.88,27.98-2.38"/>
	<path d="M66.97,78.69c0.03,1.06-0.49,2.27-1.25,3.14c-2.3,2.62-9.38,8.82-13.97,11.93"/>
	<path d="M83.5,80.75c5.09,3.8,11.11,10.68,12.5,14"/>
</g>
</svg>
