<?xml version="1.0" encoding="UTF-8"?>
<!--
Copyright (C) 2009/2010/2011 Ulrich Apel.
This work is distributed under the conditions of the Creative Commons 
Attribution-Share Alike 3.0 Licence. This means you are free:
* to Share - to copy, distribute and transmit the work
* to Remix - to adapt the work

Under the following conditions:
* Attribution. You must attribute the work by stating your use of KanjiVG in
  your own copyright header and linking to KanjiVG's website
  (http://kanjivg.tagaini.net)
* Share Alike. If you alter, transform, or build upon this work, you may
  distribute the resulting work only under the same or similar license to this
  one.

See http://creativecommons.org/licenses/by-sa/3.0/ for more details.
-->
<!DOCTYPE svg PUBLIC "-//W3C//DTD SVG 1.0//EN" "http://www.w3.org/TR/2001/REC-SVG-20010904/DTD/svg10.dtd" [
<!ATTLIST g
xmlns:kvg CDATA #FIXED "http://kanjivg.tagaini.net"
kvg:element CDATA #IMPLIED
kvg:variant CDATA #IMPLIED
kvg:partial CDATA #IMPLIED
kvg:original CDATA #IMPLIED
kvg:part CDATA #IMPLIED
kvg:number CDATA #IMPLIED
kvg:tradForm CDATA #IMPLIED
kvg:radicalForm CDATA #IMPLIED
kvg:position CDATA #IMPLIED
kvg:radical CDATA #IMPLIED
kvg:phon CDATA #IMPLIED >
<!ATTLIST path
xmlns:kvg CDATA #FIXED "http://kanjivg.tagaini.net"
kvg:type CDATA #IMPLIED >
]>
<svg xmlns="http://www.w3.org/2000/svg" width="109" height="109" viewBox="0 0 109 109">
<g id="kvg:StrokePaths_096fb" style="fill:none;stroke:#000000;stroke-width:3;stroke-linecap:round;stroke-linejoin:round;">
	<path d="M34.66,16.19c2.31,0.7,4.78,0.25,7.11-0.04c6.03-0.75,16.15-1.97,23.49-2.76c2.19-0.23,4.03-0.14,6.05,0.1"/>
	<path d="M19.51,29.11c-0.2,5.55-1.93,11.7-3.21,17.3"/>
	<path d="M20.85,32.18C37.62,30.38,70,25.62,86.4,25.2c9.1-0.24,2.35,6.05-0.78,9.53"/>
	<path d="M50.92,17.26c1.1,1.1,1.83,2.49,1.83,3.76c0,3.98-0.16,17.08-0.23,23.73c-0.02,2.1-0.04,3.56-0.04,3.89"/>
	<path d="M32.75,36.46c3.42,0.53,8.09,2.12,9.96,3"/>
	<path d="M31.25,45c3.16,0.57,8.05,2.68,9.77,3.64"/>
	<path d="M65.5,33.47c3.66,0.79,7.81,2.37,9.28,3.03"/>
	<path d="M65.54,41.89c2.82,0.77,6.67,3.06,8.21,4.34"/>
</g>
</svg>
